# xmcd
#
# Track frame offsets:
#	150
#	10408
#	21909
#	32467
#	45484
#	56421
#	67013
#	78464
#	90134
#	101709
#	114913
#	127002
#	137908
#	151295
#	162827
#
# Disc length: 2346 seconds
#
# Revision: 0
# Processed by: cddbd v1.5.2PL0 Copyright (c) Steve Scherf et al.
# Submitted via: EasyCDDAExtractor 11.5.0.1
#
DISCID=b709280f
DTITLE=The Spellbinders - Chain Reaction
DYEAR=1967
DGENRE=R&B
TTITLE0=We're Acting Like Lovers
TTITLE1=For You
TTITLE2=Self Defense
TTITLE3=One Of A Kind
TTITLE4=A Little On The Blue Side
TTITLE5=Stone In Love
TTITLE6=Baby, I Miss You
TTITLE7=That's The Way You Make Me Feel
TTITLE8=Chain Reaction
TTITLE9=Long Lost Love
TTITLE10=I Need Your Love
TTITLE11=Help Me (Get Myself Back Together Again)
TTITLE12=Danny Boy
TTITLE13=Since I Don't Have You
TTITLE14=I Believe
EXTD=
EXTT0=
EXTT1=
EXTT2=
EXTT3=
EXTT4=
EXTT5=
EXTT6=
EXTT7=
EXTT8=
EXTT9=
EXTT10=
EXTT11=
EXTT12=
EXTT13=
EXTT14=
PLAYORDER=
